<svg xmlns="http://www.w3.org/2000/svg" viewBox="0 0 270.8 271.05">
  <defs>
    <style>
      .a {
        fill: #f3e4e1;
      }

      .b {
        fill: #e5674f;
      }
    </style>
  </defs>
  <title>アセット 1</title>
  <g>
    <path class="a" d="M26.87,216.24q35.27-45.62,92.07-53.92c-17.38-5.32-31.06-15.2-40.26-30.75a63.73,63.73,0,0,1-7.08-50,65.9,65.9,0,0,1,126.74-3c4.25,14,4.13,28.14-1,41.89-8,21.51-23.61,35.13-45.58,41.92q57,8.34,92.07,53.76c34.21-43.22,40.7-118.47-8.9-172.38A134.93,134.93,0,0,0,141.74.15h-.39c-.92,0-1.85-.08-2.77-.1-.64,0-1.27,0-1.9,0l-1.35,0c-1.15,0-2.28,0-3.42,0h-.17q-1.59,0-3.18.12l-1.07.06-2.22.15c-.53,0-1.06.08-1.6.13L122,.65l-2,.22L118.86,1c-.81.09-1.62.2-2.43.32l-.7.1c-.93.13-1.86.28-2.79.43l-.3,0a134.48,134.48,0,0,0-67.76,32.9C-10.72,85-12.19,165,26.87,216.24Z"/>
    <path class="b" d="M151.74,162.36c22-6.79,37.53-20.41,45.58-41.92,5.15-13.75,5.27-27.84,1-41.89a65.9,65.9,0,0,0-126.74,3,63.73,63.73,0,0,0,7.08,50c9.2,15.55,22.88,25.43,40.26,30.75Q62,170.71,26.87,216.24l-.16.23a135.49,135.49,0,0,0,217.38,0l-.28-.32Q208.7,170.71,151.74,162.36Z"/>
  </g>
</svg>
